<svg width="19" height="19" viewBox="0 0 19 19" fill="none" stroke="none" xmlns="http://www.w3.org/2000/svg" fill="current">
<path d="M17.8482 10.5252H16.9444V16.6175C16.9444 17.5775 16.1337 18.3582 15.1368 18.3582H4.29102C3.29412 18.3582 2.4834 17.5775 2.4834 16.6175V10.5252H1.57959C1.40086 10.5251 1.22615 10.4741 1.07756 10.3784C0.928961 10.2828 0.813148 10.1469 0.744757 9.98789C0.676365 9.82888 0.658466 9.65391 0.693323 9.4851C0.728182 9.3163 0.81423 9.16124 0.940592 9.03952L9.0749 1.20648C9.15877 1.12558 9.25837 1.06141 9.36802 1.01762C9.47766 0.973832 9.5952 0.951294 9.7139 0.951294C9.8326 0.951294 9.95014 0.973832 10.0598 1.01762C10.1694 1.06141 10.269 1.12558 10.3529 1.20648L18.4872 9.03952C18.6136 9.16124 18.6996 9.3163 18.7345 9.4851C18.7693 9.65391 18.7514 9.82888 18.683 9.98789C18.6147 10.1469 18.4988 10.2828 18.3502 10.3784C18.2016 10.4741 18.0269 10.5251 17.8482 10.5252ZM11.5215 16.6175V12.2659H7.90627V16.6175H11.5215ZM9.7139 3.05246L4.29102 8.27449V12.2659L4.29012 16.6175H6.09865V12.2659C6.09865 11.3059 6.90937 10.5252 7.90627 10.5252H11.5215C12.5184 10.5252 13.3291 11.3059 13.3291 12.2659V16.6175H15.1368V8.27449L9.7139 3.05246Z" />
</svg>
