<svg width="17" height="20" viewBox="0 0 17 20" fill="none" xmlns="http://www.w3.org/2000/svg">
<path d="M8.21386 8.25C8.21386 8.05109 8.13485 7.86032 7.99419 7.71967C7.85354 7.57902 7.66278 7.5 7.46386 7.5H3.96386C3.76495 7.5 3.57418 7.57902 3.43353 7.71967C3.29288 7.86032 3.21386 8.05109 3.21386 8.25C3.21386 8.44891 3.29288 8.63968 3.43353 8.78033C3.57418 8.92098 3.76495 9 3.96386 9H7.46386C7.66278 9 7.85354 8.92098 7.99419 8.78033C8.13485 8.63968 8.21386 8.44891 8.21386 8.25ZM7.46386 13C7.66278 13 7.85354 13.079 7.99419 13.2197C8.13485 13.3603 8.21386 13.5511 8.21386 13.75C8.21386 13.9489 8.13485 14.1397 7.99419 14.2803C7.85354 14.421 7.66278 14.5 7.46386 14.5H3.96386C3.76495 14.5 3.57418 14.421 3.43353 14.2803C3.29288 14.1397 3.21386 13.9489 3.21386 13.75C3.21386 13.5511 3.29288 13.3603 3.43353 13.2197C3.57418 13.079 3.76495 13 3.96386 13H7.46386ZM9.93387 7.78C9.86018 7.71134 9.80108 7.62854 9.76008 7.53654C9.71909 7.44454 9.69705 7.34523 9.69527 7.24452C9.6935 7.14382 9.71202 7.04379 9.74974 6.9504C9.78746 6.85702 9.84361 6.77218 9.91483 6.70096C9.98605 6.62974 10.0709 6.5736 10.1643 6.53588C10.2577 6.49816 10.3577 6.47963 10.4584 6.48141C10.5591 6.48319 10.6584 6.50523 10.7504 6.54622C10.8424 6.58721 10.9252 6.64631 10.9939 6.72L12.4639 8.19L12.9339 7.72C13.076 7.58752 13.2641 7.5154 13.4584 7.51883C13.6527 7.52225 13.8381 7.60097 13.9755 7.73838C14.1129 7.87579 14.1916 8.06118 14.195 8.25548C14.1985 8.44978 14.1263 8.63783 13.9939 8.78L12.9939 9.78C12.8532 9.92045 12.6626 9.99934 12.4639 9.99934C12.2651 9.99934 12.0745 9.92045 11.9339 9.78L9.93387 7.78ZM9.93387 12.22C9.79341 12.3606 9.71452 12.5513 9.71452 12.75C9.71452 12.9488 9.79341 13.1394 9.93387 13.28L11.9339 15.28C12.0745 15.4205 12.2651 15.4993 12.4639 15.4993C12.6626 15.4993 12.8532 15.4205 12.9939 15.28L13.9939 14.28C14.0676 14.2113 14.1267 14.1285 14.1676 14.0365C14.2086 13.9445 14.2307 13.8452 14.2325 13.7445C14.2342 13.6438 14.2157 13.5438 14.178 13.4504C14.1403 13.357 14.0841 13.2722 14.0129 13.201C13.9417 13.1297 13.8569 13.0736 13.7635 13.0359C13.6701 12.9982 13.57 12.9796 13.4693 12.9814C13.3686 12.9832 13.2693 13.0052 13.1773 13.0462C13.0853 13.0872 13.0025 13.1463 12.9339 13.22L12.4639 13.69L10.9939 12.22C10.8532 12.0796 10.6626 12.0007 10.4639 12.0007C10.2651 12.0007 10.0745 12.0796 9.93387 12.22ZM4.71986 2.084C4.76177 1.51752 5.01639 0.987861 5.4326 0.601319C5.84882 0.214778 6.39584 -3.32977e-05 6.96386 3.87141e-09H10.4639C11.0173 1.67245e-05 11.5513 0.204007 11.9638 0.572972C12.3763 0.941936 12.6384 1.44999 12.6999 2H14.4639C15.0606 2 15.6329 2.23705 16.0549 2.65901C16.4768 3.08097 16.7139 3.65326 16.7139 4.25V17.75C16.7139 18.3467 16.4768 18.919 16.0549 19.341C15.6329 19.7629 15.0606 20 14.4639 20H2.96386C2.66839 20 2.37581 19.9418 2.10282 19.8287C1.82984 19.7157 1.5818 19.5499 1.37287 19.341C1.16394 19.1321 0.998205 18.884 0.885132 18.611C0.772058 18.3381 0.713861 18.0455 0.713861 17.75V4.25C0.713861 3.95453 0.772058 3.66195 0.885132 3.38896C0.998205 3.11598 1.16394 2.86794 1.37287 2.65901C1.5818 2.45008 1.82984 2.28434 2.10282 2.17127C2.37581 2.0582 2.66839 2 2.96386 2H4.72786L4.71986 2.084ZM4.71986 2.096L4.71386 2.25C4.71386 2.198 4.71586 2.147 4.71886 2.096H4.71986ZM10.4639 4.5H6.96386C6.18386 4.5 5.49686 4.103 5.09286 3.5H2.96386C2.76495 3.5 2.57418 3.57902 2.43353 3.71967C2.29288 3.86032 2.21386 4.05109 2.21386 4.25V17.75C2.21386 17.9489 2.29288 18.1397 2.43353 18.2803C2.57418 18.421 2.76495 18.5 2.96386 18.5H14.4639C14.6628 18.5 14.8535 18.421 14.9942 18.2803C15.1348 18.1397 15.2139 17.9489 15.2139 17.75V4.25C15.2139 4.05109 15.1348 3.86032 14.9942 3.71967C14.8535 3.57902 14.6628 3.5 14.4639 3.5H12.3349C11.9309 4.103 11.2439 4.5 10.4639 4.5ZM10.4639 1.5H6.96386C6.76495 1.5 6.57419 1.57902 6.43353 1.71967C6.29288 1.86032 6.21386 2.05109 6.21386 2.25C6.21386 2.44891 6.29288 2.63968 6.43353 2.78033C6.57419 2.92098 6.76495 3 6.96386 3H10.4639C10.6628 3 10.8535 2.92098 10.9942 2.78033C11.1348 2.63968 11.2139 2.44891 11.2139 2.25C11.2139 2.05109 11.1348 1.86032 10.9942 1.71967C10.8535 1.57902 10.6628 1.5 10.4639 1.5Z" fill="#3A78F2"/>
</svg>
